Exact Audio Copy V0.99 prebeta 4 from 23. January 2008

EAC 抓取日志文件从7. 二月 2013, 14:58

Various / 中国歌剧歌坛名人3

使用驱动器  ：TEAC    CD-W540E   Adapter: 3  ID: 0

读取模式     : 保护
使用精确流   : 是
废除音频缓冲 : 是
使用 C2 指针 : 否

读取偏移校正                   : 686
读取 Lead-In 和 Lead-Out       : 否
用静音填充抓取中丢失偏移的采样 : 是
去除首尾静音块                 : 否
在 CRC 计算中使用了空样本      : 是
已用接口                       : Win NT 及 2000 本地 Win32 接口

所用输出格式 : 内部 WAV 函数
样本格式     : 44.100 Hz;16 Bit;立体声


被抓轨 CD 的 TOC

     音轨 |   开始   |   长度   | 起始扇区 | 结尾扇区 
    --------------------------------------------------
       1  |  0:00.00 |  6:31.35 |       0  |   29359  
       2  |  6:31.35 |  3:09.07 |   29360  |   43541  
       3  |  9:40.42 |  3:07.25 |   43542  |   57591  
       4  | 12:47.67 |  2:43.10 |   57592  |   69826  
       5  | 15:31.02 |  5:39.55 |   69827  |   95306  
       6  | 21:10.57 |  2:39.58 |   95307  |  107289  
       7  | 23:50.40 |  1:51.35 |  107290  |  115649  
       8  | 25:42.00 |  2:45.47 |  115650  |  128071  
       9  | 28:27.47 |  4:20.30 |  128072  |  147601  
      10  | 32:48.02 |  3:25.68 |  147602  |  163044  
      11  | 36:13.70 |  6:44.45 |  163045  |  193389  
      12  | 42:58.40 |  2:25.30 |  193390  |  204294  
      13  | 45:23.70 |  8:29.35 |  204295  |  242504  


范围状态及错误

已选择范围

     文件名 D:\行板如歌原抓\中国歌剧歌坛名人3.wav

     峰值电平 100.0 %
     范围质量 100.0 %
     复制 CRC D1E3F92F
     复制成功

没有错误发生

状态报告结尾
